<?xml version="1.0" standalone="no"?>
<!-- Creator: fig2dev Version 3.2.6a -->
<!-- CreationDate: 2020-09-02 10:22:44 -->
<!-- Magnification: 1 -->
<svg	xmlns="http://www.w3.org/2000/svg"
	xmlns:xlink="http://www.w3.org/1999/xlink"
	width="467pt" height="77pt"
	viewBox="75 108 7777 1273">
<g fill="none">
<!-- Line -->
<polyline points=" 3390,840 3390,1020"
	stroke="#000000" stroke-width="8px"/>
<!-- Line -->
<polyline points=" 240,840 240,1020"
	stroke="#000000" stroke-width="8px"/>
<!-- Line -->
<polyline points=" 465,885 465,975"
	stroke="#000000" stroke-width="8px"/>
<!-- Line -->
<polyline points=" 360,885 360,975"
	stroke="#000000" stroke-width="8px"/>
<!-- Line -->
<polyline points=" 690,885 690,975"
	stroke="#000000" stroke-width="8px"/>
<!-- Line -->
<polyline points=" 585,885 585,975"
	stroke="#000000" stroke-width="8px"/>
<!-- Line -->
<polyline points=" 915,885 915,975"
	stroke="#000000" stroke-width="8px"/>
<!-- Line -->
<polyline points=" 810,885 810,975"
	stroke="#000000" stroke-width="8px"/>
<!-- Line -->
<polyline points=" 1020,840 1020,1020"
	stroke="#000000" stroke-width="8px"/>
<!-- Line -->
<polyline points=" 1245,885 1245,975"
	stroke="#000000" stroke-width="8px"/>
<!-- Line -->
<polyline points=" 1140,885 1140,975"
	stroke="#000000" stroke-width="8px"/>
<!-- Line -->
<polyline points=" 1470,885 1470,975"
	stroke="#000000" stroke-width="8px"/>
<!-- Line -->
<polyline points=" 1365,885 1365,975"
	stroke="#000000" stroke-width="8px"/>
<!-- Line -->
<polyline points=" 1695,885 1695,975"
	stroke="#000000" stroke-width="8px"/>
<!-- Line -->
<polyline points=" 1590,885 1590,975"
	stroke="#000000" stroke-width="8px"/>
<!-- Line -->
<polyline points=" 1815,840 1815,1020"
	stroke="#000000" stroke-width="8px"/>
<!-- Line -->
<polyline points=" 2040,885 2040,975"
	stroke="#000000" stroke-width="8px"/>
<!-- Line -->
<polyline points=" 1935,885 1935,975"
	stroke="#000000" stroke-width="8px"/>
<!-- Line -->
<polyline points=" 2265,885 2265,975"
	stroke="#000000" stroke-width="8px"/>
<!-- Line -->
<polyline points=" 2160,885 2160,975"
	stroke="#000000" stroke-width="8px"/>
<!-- Line -->
<polyline points=" 2490,885 2490,975"
	stroke="#000000" stroke-width="8px"/>
<!-- Line -->
<polyline points=" 2385,885 2385,975"
	stroke="#000000" stroke-width="8px"/>
<!-- Line -->
<polyline points=" 2595,840 2595,1020"
	stroke="#000000" stroke-width="8px"/>
<!-- Line -->
<polyline points=" 2820,885 2820,975"
	stroke="#000000" stroke-width="8px"/>
<!-- Line -->
<polyline points=" 2715,885 2715,975"
	stroke="#000000" stroke-width="8px"/>
<!-- Line -->
<polyline points=" 3045,885 3045,975"
	stroke="#000000" stroke-width="8px"/>
<!-- Line -->
<polyline points=" 2940,885 2940,975"
	stroke="#000000" stroke-width="8px"/>
<!-- Line -->
<polyline points=" 3270,885 3270,975"
	stroke="#000000" stroke-width="8px"/>
<!-- Line -->
<polyline points=" 3165,885 3165,975"
	stroke="#000000" stroke-width="8px"/>
<!-- Line -->
<polyline points=" 6541,840 6541,1020"
	stroke="#000000" stroke-width="8px"/>
<!-- Line -->
<polyline points=" 6661,885 6661,975"
	stroke="#000000" stroke-width="8px"/>
<!-- Line -->
<polyline points=" 6766,885 6766,975"
	stroke="#000000" stroke-width="8px"/>
<!-- Line -->
<polyline points=" 3391,840 3391,1020"
	stroke="#000000" stroke-width="8px"/>
<!-- Line -->
<polyline points=" 3616,885 3616,975"
	stroke="#000000" stroke-width="8px"/>
<!-- Line -->
<polyline points=" 3511,885 3511,975"
	stroke="#000000" stroke-width="8px"/>
<!-- Line -->
<polyline points=" 3841,885 3841,975"
	stroke="#000000" stroke-width="8px"/>
<!-- Line -->
<polyline points=" 3736,885 3736,975"
	stroke="#000000" stroke-width="8px"/>
<!-- Line -->
<polyline points=" 4066,885 4066,975"
	stroke="#000000" stroke-width="8px"/>
<!-- Line -->
<polyline points=" 3961,885 3961,975"
	stroke="#000000" stroke-width="8px"/>
<!-- Line -->
<polyline points=" 4171,840 4171,1020"
	stroke="#000000" stroke-width="8px"/>
<!-- Line -->
<polyline points=" 4396,885 4396,975"
	stroke="#000000" stroke-width="8px"/>
<!-- Line -->
<polyline points=" 4291,885 4291,975"
	stroke="#000000" stroke-width="8px"/>
<!-- Line -->
<polyline points=" 4621,885 4621,975"
	stroke="#000000" stroke-width="8px"/>
<!-- Line -->
<polyline points=" 4516,885 4516,975"
	stroke="#000000" stroke-width="8px"/>
<!-- Line -->
<polyline points=" 4846,885 4846,975"
	stroke="#000000" stroke-width="8px"/>
<!-- Line -->
<polyline points=" 4741,885 4741,975"
	stroke="#000000" stroke-width="8px"/>
<!-- Line -->
<polyline points=" 4966,840 4966,1020"
	stroke="#000000" stroke-width="8px"/>
<!-- Line -->
<polyline points=" 5191,885 5191,975"
	stroke="#000000" stroke-width="8px"/>
<!-- Line -->
<polyline points=" 5086,885 5086,975"
	stroke="#000000" stroke-width="8px"/>
<!-- Line -->
<polyline points=" 5416,885 5416,975"
	stroke="#000000" stroke-width="8px"/>
<!-- Line -->
<polyline points=" 5311,885 5311,975"
	stroke="#000000" stroke-width="8px"/>
<!-- Line -->
<polyline points=" 5641,885 5641,975"
	stroke="#000000" stroke-width="8px"/>
<!-- Line -->
<polyline points=" 5536,885 5536,975"
	stroke="#000000" stroke-width="8px"/>
<!-- Line -->
<polyline points=" 5746,840 5746,1020"
	stroke="#000000" stroke-width="8px"/>
<!-- Line -->
<polyline points=" 5971,885 5971,975"
	stroke="#000000" stroke-width="8px"/>
<!-- Line -->
<polyline points=" 5866,885 5866,975"
	stroke="#000000" stroke-width="8px"/>
<!-- Line -->
<polyline points=" 6196,885 6196,975"
	stroke="#000000" stroke-width="8px"/>
<!-- Line -->
<polyline points=" 6091,885 6091,975"
	stroke="#000000" stroke-width="8px"/>
<!-- Line -->
<polyline points=" 6421,885 6421,975"
	stroke="#000000" stroke-width="8px"/>
<!-- Line -->
<polyline points=" 6316,885 6316,975"
	stroke="#000000" stroke-width="8px"/>
<!-- Line -->
<defs>
<clipPath id="cp0">
	<path clip-rule="evenodd" d="M 75,108 H 7852 V 1381 H 75 z
		M 263,240 225,375 188,240 218,397 232,397z"/>
</clipPath>
</defs>
<polyline points=" 225,120 225,390" clip-path="url(#cp0)"
	stroke="#000000" stroke-width="8px"/>
<!-- Forward arrow to point 225,390 -->
<polyline points=" 263,240 225,375 188,240"
	stroke="#000000" stroke-width="8px" stroke-miterlimit="8"/>
<!-- Line -->
<defs>
<clipPath id="cp1">
	<path clip-rule="evenodd" d="M 75,108 H 7852 V 1381 H 75 z
		M 6788,240 6750,375 6713,240 6743,397 6757,397z"/>
</clipPath>
</defs>
<polyline points=" 6750,120 6750,390" clip-path="url(#cp1)"
	stroke="#000000" stroke-width="8px"/>
<!-- Forward arrow to point 6750,390 -->
<polyline points=" 6788,240 6750,375 6713,240"
	stroke="#000000" stroke-width="8px" stroke-miterlimit="8"/>
<!-- Line -->
<defs>
<clipPath id="cp2">
	<path clip-rule="evenodd" d="M 75,108 H 7852 V 1381 H 75 z
		M 6188,240 6150,375 6113,240 6143,397 6157,397z"/>
</clipPath>
</defs>
<polyline points=" 6150,120 6150,390" clip-path="url(#cp2)"
	stroke="#000000" stroke-width="8px"/>
<!-- Forward arrow to point 6150,390 -->
<polyline points=" 6188,240 6150,375 6113,240"
	stroke="#000000" stroke-width="8px" stroke-miterlimit="8"/>
<!-- Line -->
<defs>
<clipPath id="cp3">
	<path clip-rule="evenodd" d="M 75,108 H 7852 V 1381 H 75 z
		M 6113,240 6075,375 6038,240 6068,397 6082,397z"/>
</clipPath>
</defs>
<polyline points=" 6075,120 6075,390" clip-path="url(#cp3)"
	stroke="#000000" stroke-width="8px"/>
<!-- Forward arrow to point 6075,390 -->
<polyline points=" 6113,240 6075,375 6038,240"
	stroke="#000000" stroke-width="8px" stroke-miterlimit="8"/>
<!-- Line -->
<defs>
<clipPath id="cp4">
	<path clip-rule="evenodd" d="M 75,108 H 7852 V 1381 H 75 z
		M 6563,240 6525,375 6488,240 6518,397 6532,397z"/>
</clipPath>
</defs>
<polyline points=" 6525,120 6525,390" clip-path="url(#cp4)"
	stroke="#000000" stroke-width="8px"/>
<!-- Forward arrow to point 6525,390 -->
<polyline points=" 6563,240 6525,375 6488,240"
	stroke="#000000" stroke-width="8px" stroke-miterlimit="8"/>
<!-- Line -->
<defs>
<clipPath id="cp5">
	<path clip-rule="evenodd" d="M 75,108 H 7852 V 1381 H 75 z
		M 6689,240 6651,375 6614,240 6644,397 6658,397z"/>
</clipPath>
</defs>
<polyline points=" 6651,120 6651,390" clip-path="url(#cp5)"
	stroke="#000000" stroke-width="8px"/>
<!-- Forward arrow to point 6651,390 -->
<polyline points=" 6689,240 6651,375 6614,240"
	stroke="#000000" stroke-width="8px" stroke-miterlimit="8"/>
<!-- Line -->
<defs>
<clipPath id="cp6">
	<path clip-rule="evenodd" d="M 75,108 H 7852 V 1381 H 75 z
		M 5459,240 5421,375 5384,240 5414,397 5428,397z"/>
</clipPath>
</defs>
<polyline points=" 5421,120 5421,390" clip-path="url(#cp6)"
	stroke="#000000" stroke-width="8px"/>
<!-- Forward arrow to point 5421,390 -->
<polyline points=" 5459,240 5421,375 5384,240"
	stroke="#000000" stroke-width="8px" stroke-miterlimit="8"/>
<!-- Line -->
<defs>
<clipPath id="cp7">
	<path clip-rule="evenodd" d="M 75,108 H 7852 V 1381 H 75 z
		M 4656,240 4618,375 4581,240 4611,397 4625,397z"/>
</clipPath>
</defs>
<polyline points=" 4618,120 4618,390" clip-path="url(#cp7)"
	stroke="#000000" stroke-width="8px"/>
<!-- Forward arrow to point 4618,390 -->
<polyline points=" 4656,240 4618,375 4581,240"
	stroke="#000000" stroke-width="8px" stroke-miterlimit="8"/>
<!-- Line -->
<defs>
<clipPath id="cp8">
	<path clip-rule="evenodd" d="M 75,108 H 7852 V 1381 H 75 z
		M 3891,240 3853,375 3816,240 3846,397 3860,397z"/>
</clipPath>
</defs>
<polyline points=" 3853,120 3853,390" clip-path="url(#cp8)"
	stroke="#000000" stroke-width="8px"/>
<!-- Forward arrow to point 3853,390 -->
<polyline points=" 3891,240 3853,375 3816,240"
	stroke="#000000" stroke-width="8px" stroke-miterlimit="8"/>
<!-- Line -->
<defs>
<clipPath id="cp9">
	<path clip-rule="evenodd" d="M 75,108 H 7852 V 1381 H 75 z
		M 3066,240 3028,375 2991,240 3021,397 3035,397z"/>
</clipPath>
</defs>
<polyline points=" 3028,120 3028,390" clip-path="url(#cp9)"
	stroke="#000000" stroke-width="8px"/>
<!-- Forward arrow to point 3028,390 -->
<polyline points=" 3066,240 3028,375 2991,240"
	stroke="#000000" stroke-width="8px" stroke-miterlimit="8"/>
<!-- Text -->
<text xml:space="preserve" x="3255" y="1366" fill="#000000" font-family="Times" font-style="normal" font-weight="normal" font-size="120" text-anchor="start">Mon</text>
<!-- Text -->
<text xml:space="preserve" x="2445" y="1366" fill="#000000" font-family="Times" font-style="normal" font-weight="normal" font-size="120" text-anchor="start">Mon</text>
<!-- Text -->
<text xml:space="preserve" x="1665" y="1366" fill="#000000" font-family="Times" font-style="normal" font-weight="normal" font-size="120" text-anchor="start">Mon</text>
<!-- Text -->
<text xml:space="preserve" x="870" y="1366" fill="#000000" font-family="Times" font-style="normal" font-weight="normal" font-size="120" text-anchor="start">Mon</text>
<!-- Text -->
<text xml:space="preserve" x="90" y="1366" fill="#000000" font-family="Times" font-style="normal" font-weight="normal" font-size="120" text-anchor="start">Mon</text>
<!-- Text -->
<text xml:space="preserve" x="6406" y="1366" fill="#000000" font-family="Times" font-style="normal" font-weight="normal" font-size="120" text-anchor="start">Mon</text>
<!-- Text -->
<text xml:space="preserve" x="5596" y="1366" fill="#000000" font-family="Times" font-style="normal" font-weight="normal" font-size="120" text-anchor="start">Mon</text>
<!-- Text -->
<text xml:space="preserve" x="4816" y="1366" fill="#000000" font-family="Times" font-style="normal" font-weight="normal" font-size="120" text-anchor="start">Mon</text>
<!-- Text -->
<text xml:space="preserve" x="4021" y="1366" fill="#000000" font-family="Times" font-style="normal" font-weight="normal" font-size="120" text-anchor="start">Mon</text>
<!-- Text -->
<text xml:space="preserve" x="660" y="825" fill="#000000" font-family="Times" font-style="normal" font-weight="normal" font-size="120" text-anchor="start">1</text>
<!-- Text -->
<text xml:space="preserve" x="1440" y="825" fill="#000000" font-family="Times" font-style="normal" font-weight="normal" font-size="120" text-anchor="start">1</text>
<!-- Text -->
<text xml:space="preserve" x="2250" y="825" fill="#000000" font-family="Times" font-style="normal" font-weight="normal" font-size="120" text-anchor="start">1</text>
<!-- Text -->
<text xml:space="preserve" x="3000" y="825" fill="#000000" font-family="Times" font-style="normal" font-weight="normal" font-size="120" text-anchor="start">1</text>
<!-- Text -->
<text xml:space="preserve" x="330" y="825" fill="#000000" font-family="Times" font-style="normal" font-weight="normal" font-size="120" text-anchor="start">2</text>
<!-- Text -->
<text xml:space="preserve" x="435" y="825" fill="#000000" font-family="Times" font-style="normal" font-weight="normal" font-size="120" text-anchor="start">2</text>
<!-- Text -->
<text xml:space="preserve" x="555" y="825" fill="#000000" font-family="Times" font-style="normal" font-weight="normal" font-size="120" text-anchor="start">2</text>
<!-- Text -->
<text xml:space="preserve" x="1110" y="825" fill="#000000" font-family="Times" font-style="normal" font-weight="normal" font-size="120" text-anchor="start">2</text>
<!-- Text -->
<text xml:space="preserve" x="1215" y="825" fill="#000000" font-family="Times" font-style="normal" font-weight="normal" font-size="120" text-anchor="start">2</text>
<!-- Text -->
<text xml:space="preserve" x="1335" y="825" fill="#000000" font-family="Times" font-style="normal" font-weight="normal" font-size="120" text-anchor="start">2</text>
<!-- Text -->
<text xml:space="preserve" x="990" y="825" fill="#000000" font-family="Times" font-style="normal" font-weight="normal" font-size="120" text-anchor="start">2</text>
<!-- Text -->
<text xml:space="preserve" x="1905" y="825" fill="#000000" font-family="Times" font-style="normal" font-weight="normal" font-size="120" text-anchor="start">2</text>
<!-- Text -->
<text xml:space="preserve" x="2010" y="825" fill="#000000" font-family="Times" font-style="normal" font-weight="normal" font-size="120" text-anchor="start">2</text>
<!-- Text -->
<text xml:space="preserve" x="2130" y="825" fill="#000000" font-family="Times" font-style="normal" font-weight="normal" font-size="120" text-anchor="start">2</text>
<!-- Text -->
<text xml:space="preserve" x="1785" y="825" fill="#000000" font-family="Times" font-style="normal" font-weight="normal" font-size="120" text-anchor="start">2</text>
<!-- Text -->
<text xml:space="preserve" x="2910" y="825" fill="#000000" font-family="Times" font-style="normal" font-weight="normal" font-size="120" text-anchor="start">2</text>
<!-- Text -->
<text xml:space="preserve" x="3570" y="1170" fill="#000000" font-family="Times" font-style="normal" font-weight="normal" font-size="120" text-anchor="start">31</text>
<!-- Text -->
<text xml:space="preserve" x="3330" y="1170" fill="#000000" font-family="Times" font-style="normal" font-weight="normal" font-size="120" text-anchor="start">29</text>
<!-- Text -->
<text xml:space="preserve" x="2520" y="1170" fill="#000000" font-family="Times" font-style="normal" font-weight="normal" font-size="120" text-anchor="start">22</text>
<!-- Text -->
<text xml:space="preserve" x="1740" y="1170" fill="#000000" font-family="Times" font-style="normal" font-weight="normal" font-size="120" text-anchor="start">15</text>
<!-- Text -->
<text xml:space="preserve" x="990" y="1170" fill="#000000" font-family="Times" font-style="normal" font-weight="normal" font-size="120" text-anchor="start">8</text>
<!-- Text -->
<text xml:space="preserve" x="210" y="1170" fill="#000000" font-family="Times" font-style="normal" font-weight="normal" font-size="120" text-anchor="start">1</text>
<!-- Text -->
<text xml:space="preserve" x="2685" y="825" fill="#000000" font-family="Times" font-style="normal" font-weight="normal" font-size="120" text-anchor="start">2</text>
<!-- Text -->
<text xml:space="preserve" x="2790" y="825" fill="#000000" font-family="Times" font-style="normal" font-weight="normal" font-size="120" text-anchor="start">2</text>
<!-- Text -->
<text xml:space="preserve" x="2565" y="825" fill="#000000" font-family="Times" font-style="normal" font-weight="normal" font-size="120" text-anchor="start">2</text>
<!-- Text -->
<text xml:space="preserve" x="4591" y="825" fill="#000000" font-family="Times" font-style="normal" font-weight="normal" font-size="120" text-anchor="start">1</text>
<!-- Text -->
<text xml:space="preserve" x="5401" y="825" fill="#000000" font-family="Times" font-style="normal" font-weight="normal" font-size="120" text-anchor="start">1</text>
<!-- Text -->
<text xml:space="preserve" x="6151" y="825" fill="#000000" font-family="Times" font-style="normal" font-weight="normal" font-size="120" text-anchor="start">1</text>
<!-- Text -->
<text xml:space="preserve" x="3481" y="825" fill="#000000" font-family="Times" font-style="normal" font-weight="normal" font-size="120" text-anchor="start">2</text>
<!-- Text -->
<text xml:space="preserve" x="3586" y="825" fill="#000000" font-family="Times" font-style="normal" font-weight="normal" font-size="120" text-anchor="start">2</text>
<!-- Text -->
<text xml:space="preserve" x="3706" y="825" fill="#000000" font-family="Times" font-style="normal" font-weight="normal" font-size="120" text-anchor="start">2</text>
<!-- Text -->
<text xml:space="preserve" x="4261" y="825" fill="#000000" font-family="Times" font-style="normal" font-weight="normal" font-size="120" text-anchor="start">2</text>
<!-- Text -->
<text xml:space="preserve" x="4366" y="825" fill="#000000" font-family="Times" font-style="normal" font-weight="normal" font-size="120" text-anchor="start">2</text>
<!-- Text -->
<text xml:space="preserve" x="4486" y="825" fill="#000000" font-family="Times" font-style="normal" font-weight="normal" font-size="120" text-anchor="start">2</text>
<!-- Text -->
<text xml:space="preserve" x="4141" y="825" fill="#000000" font-family="Times" font-style="normal" font-weight="normal" font-size="120" text-anchor="start">2</text>
<!-- Text -->
<text xml:space="preserve" x="5056" y="825" fill="#000000" font-family="Times" font-style="normal" font-weight="normal" font-size="120" text-anchor="start">2</text>
<!-- Text -->
<text xml:space="preserve" x="5161" y="825" fill="#000000" font-family="Times" font-style="normal" font-weight="normal" font-size="120" text-anchor="start">2</text>
<!-- Text -->
<text xml:space="preserve" x="5281" y="825" fill="#000000" font-family="Times" font-style="normal" font-weight="normal" font-size="120" text-anchor="start">2</text>
<!-- Text -->
<text xml:space="preserve" x="4936" y="825" fill="#000000" font-family="Times" font-style="normal" font-weight="normal" font-size="120" text-anchor="start">2</text>
<!-- Text -->
<text xml:space="preserve" x="6061" y="825" fill="#000000" font-family="Times" font-style="normal" font-weight="normal" font-size="120" text-anchor="start">2</text>
<!-- Text -->
<text xml:space="preserve" x="6976" y="825" fill="#000000" font-family="Times" font-style="normal" font-weight="normal" font-size="120" text-anchor="start">Backup level</text>
<!-- Text -->
<text xml:space="preserve" x="6721" y="1170" fill="#000000" font-family="Times" font-style="normal" font-weight="normal" font-size="120" text-anchor="start">31</text>
<!-- Text -->
<text xml:space="preserve" x="6976" y="1170" fill="#000000" font-family="Times" font-style="normal" font-weight="normal" font-size="120" text-anchor="start">Day of month</text>
<!-- Text -->
<text xml:space="preserve" x="6481" y="1170" fill="#000000" font-family="Times" font-style="normal" font-weight="normal" font-size="120" text-anchor="start">29</text>
<!-- Text -->
<text xml:space="preserve" x="5671" y="1170" fill="#000000" font-family="Times" font-style="normal" font-weight="normal" font-size="120" text-anchor="start">22</text>
<!-- Text -->
<text xml:space="preserve" x="4891" y="1170" fill="#000000" font-family="Times" font-style="normal" font-weight="normal" font-size="120" text-anchor="start">15</text>
<!-- Text -->
<text xml:space="preserve" x="4141" y="1170" fill="#000000" font-family="Times" font-style="normal" font-weight="normal" font-size="120" text-anchor="start">8</text>
<!-- Text -->
<text xml:space="preserve" x="5836" y="825" fill="#000000" font-family="Times" font-style="normal" font-weight="normal" font-size="120" text-anchor="start">2</text>
<!-- Text -->
<text xml:space="preserve" x="5941" y="825" fill="#000000" font-family="Times" font-style="normal" font-weight="normal" font-size="120" text-anchor="start">2</text>
<!-- Text -->
<text xml:space="preserve" x="5716" y="825" fill="#000000" font-family="Times" font-style="normal" font-weight="normal" font-size="120" text-anchor="start">2</text>
<!-- Text -->
<text xml:space="preserve" x="6631" y="825" fill="#000000" font-family="Times" font-style="normal" font-weight="normal" font-size="120" text-anchor="start">2</text>
<!-- Text -->
<text xml:space="preserve" x="6736" y="825" fill="#000000" font-family="Times" font-style="normal" font-weight="normal" font-size="120" text-anchor="start">2</text>
<!-- Text -->
<text xml:space="preserve" x="6511" y="825" fill="#000000" font-family="Times" font-style="normal" font-weight="normal" font-size="120" text-anchor="start">2</text>
<!-- Text -->
<text xml:space="preserve" x="3750" y="1154" fill="#000000" font-family="Times" font-style="normal" font-weight="normal" font-size="120" text-anchor="start">1</text>
<!-- Text -->
<text xml:space="preserve" x="3376" y="825" fill="#000000" font-family="Times" font-style="normal" font-weight="normal" font-size="120" text-anchor="start">2</text>
<!-- Text -->
<text xml:space="preserve" x="225" y="825" fill="#000000" font-family="Times" font-style="normal" font-weight="normal" font-size="120" text-anchor="start">0</text>
<!-- Text -->
<text xml:space="preserve" x="225" y="629" fill="#000000" font-family="Times" font-style="normal" font-weight="normal" font-size="120" text-anchor="start">1</text>
<!-- Text -->
<text xml:space="preserve" x="675" y="629" fill="#000000" font-family="Times" font-style="normal" font-weight="normal" font-size="120" text-anchor="start">3</text>
<!-- Text -->
<text xml:space="preserve" x="1425" y="629" fill="#000000" font-family="Times" font-style="normal" font-weight="normal" font-size="120" text-anchor="start">4</text>
<!-- Text -->
<text xml:space="preserve" x="2250" y="629" fill="#000000" font-family="Times" font-style="normal" font-weight="normal" font-size="120" text-anchor="start">5</text>
<!-- Text -->
<text xml:space="preserve" x="3000" y="629" fill="#000000" font-family="Times" font-style="normal" font-weight="normal" font-size="120" text-anchor="start">6</text>
<!-- Text -->
<text xml:space="preserve" x="3825" y="629" fill="#000000" font-family="Times" font-style="normal" font-weight="normal" font-size="120" text-anchor="start">2</text>
<!-- Text -->
<text xml:space="preserve" x="3811" y="825" fill="#000000" font-family="Times" font-style="normal" font-weight="normal" font-size="120" text-anchor="start">0</text>
<!-- Text -->
<text xml:space="preserve" x="4575" y="629" fill="#000000" font-family="Times" font-style="normal" font-weight="normal" font-size="120" text-anchor="start">3</text>
<!-- Text -->
<text xml:space="preserve" x="5400" y="629" fill="#000000" font-family="Times" font-style="normal" font-weight="normal" font-size="120" text-anchor="start">4</text>
<!-- Text -->
<text xml:space="preserve" x="6150" y="629" fill="#000000" font-family="Times" font-style="normal" font-weight="normal" font-size="120" text-anchor="start">5</text>
<!-- Text -->
<text xml:space="preserve" x="6975" y="254" fill="#000000" font-family="Times" font-style="normal" font-weight="normal" font-size="120" text-anchor="start">Restorable</text>
<!-- Text -->
<text xml:space="preserve" x="6976" y="555" fill="#000000" font-family="Times" font-style="normal" font-weight="normal" font-size="120" text-anchor="start">Tape number</text>
</g>
</svg>
