<?xml version="1.0" standalone="no"?>
<!-- Creator: fig2dev Version 3.2.6a -->
<!-- CreationDate: 2020-09-02 10:22:44 -->
<!-- Magnification: 1 -->
<svg	xmlns="http://www.w3.org/2000/svg"
	xmlns:xlink="http://www.w3.org/1999/xlink"
	width="396pt" height="344pt"
	viewBox="288 288 6585 5724">
<g fill="none">
<!-- Line -->
<rect x="300" y="1350" width="5700" height="450" rx="105"
	stroke="#000000" stroke-width="8px"/>
<!-- Line -->
<rect x="300" y="2100" width="1500" height="600" rx="105"
	stroke="#000000" stroke-width="8px"/>
<!-- Line -->
<rect x="300" y="4425" width="1500" height="600" rx="105"
	stroke="#000000" stroke-width="8px"/>
<!-- Line -->
<rect x="2250" y="5625" width="1275" height="375" rx="105"
	stroke="#000000" stroke-width="8px"/>
<!-- Line -->
<rect x="375" y="5625" width="1275" height="375" rx="105"
	stroke="#000000" stroke-width="8px"/>
<!-- Line -->
<rect x="300" y="3000" width="1500" height="600" rx="105"
	stroke="#000000" stroke-width="8px"/>
<!-- Line -->
<rect x="2025" y="2100" width="1050" height="600" rx="105"
	stroke="#000000" stroke-width="8px"/>
<!-- Line -->
<polyline points=" 3225,2400"
	stroke="#000000" stroke-width="8px" stroke-dasharray="10 30"/>
<!-- Line -->
<rect x="3225" y="2100" width="975" height="600" rx="105"
	stroke="#000000" stroke-width="8px"/>
<!-- Line -->
<rect x="4650" y="5550" width="1275" height="375" rx="105"
	stroke="#000000" stroke-width="8px"/>
<!-- Line -->
<rect x="4500" y="2100" width="1500" height="600" rx="105"
	stroke="#000000" stroke-width="8px"/>
<!-- Line -->
<rect x="4500" y="3000" width="1500" height="600" rx="105"
	stroke="#000000" stroke-width="8px"/>
<!-- Line -->
<rect x="4500" y="4425" width="1500" height="600" rx="105"
	stroke="#000000" stroke-width="8px"/>
<!-- Line -->
<defs>
<clipPath id="cp0">
	<path clip-rule="evenodd" d="M 288,288 H 6873 V 6012 H 288 z
		M 5288,1950 5250,2085 5213,1950 5243,2107 5257,2107z"/>
</clipPath>
</defs>
<polyline points=" 5250,1725 5250,2100" clip-path="url(#cp0)"
	stroke="#000000" stroke-width="8px"/>
<!-- Forward arrow to point 5250,2100 -->
<polyline points=" 5288,1950 5250,2085 5213,1950"
	stroke="#000000" stroke-width="8px" stroke-miterlimit="8"/>
<!-- Line -->
<defs>
<clipPath id="cp1">
	<path clip-rule="evenodd" d="M 288,288 H 6873 V 6012 H 288 z
		M 5288,4275 5250,4410 5213,4275 5243,4432 5257,4432z"/>
</clipPath>
</defs>
<polyline points=" 5250,3600 5250,4425" clip-path="url(#cp1)"
	stroke="#000000" stroke-width="8px"/>
<!-- Forward arrow to point 5250,4425 -->
<polyline points=" 5288,4275 5250,4410 5213,4275"
	stroke="#000000" stroke-width="8px" stroke-miterlimit="8"/>
<!-- Line -->
<defs>
<clipPath id="cp2">
	<path clip-rule="evenodd" d="M 288,288 H 6873 V 6012 H 288 z
		M 5288,2850 5250,2985 5213,2850 5243,3007 5257,3007z"/>
</clipPath>
</defs>
<polyline points=" 5250,2700 5250,3000" clip-path="url(#cp2)"
	stroke="#000000" stroke-width="8px"/>
<!-- Forward arrow to point 5250,3000 -->
<polyline points=" 5288,2850 5250,2985 5213,2850"
	stroke="#000000" stroke-width="8px" stroke-miterlimit="8"/>
<!-- Line -->
<polyline points=" 5250,5025"
	stroke="#000000" stroke-width="8px"/>
<!-- Line -->
<defs>
<clipPath id="cp3">
	<path clip-rule="evenodd" d="M 288,288 H 6873 V 6012 H 288 z
		M 5288,5400 5250,5535 5213,5400 5243,5557 5257,5557z"/>
</clipPath>
</defs>
<polyline points=" 5250,5025 5250,5550" clip-path="url(#cp3)"
	stroke="#000000" stroke-width="8px"/>
<!-- Forward arrow to point 5250,5550 -->
<polyline points=" 5288,5400 5250,5535 5213,5400"
	stroke="#000000" stroke-width="8px" stroke-miterlimit="8"/>
<!-- Line -->
<defs>
<clipPath id="cp4">
	<path clip-rule="evenodd" d="M 288,288 H 6873 V 6012 H 288 z
		M 1088,1950 1050,2085 1013,1950 1043,2107 1057,2107z"/>
</clipPath>
</defs>
<polyline points=" 1050,1725 1050,2100" clip-path="url(#cp4)"
	stroke="#000000" stroke-width="8px"/>
<!-- Forward arrow to point 1050,2100 -->
<polyline points=" 1088,1950 1050,2085 1013,1950"
	stroke="#000000" stroke-width="8px" stroke-miterlimit="8"/>
<!-- Line -->
<defs>
<clipPath id="cp5">
	<path clip-rule="evenodd" d="M 288,288 H 6873 V 6012 H 288 z
		M 1088,2850 1050,2985 1013,2850 1043,3007 1057,3007z"/>
</clipPath>
</defs>
<polyline points=" 1050,2700 1050,3000" clip-path="url(#cp5)"
	stroke="#000000" stroke-width="8px"/>
<!-- Forward arrow to point 1050,3000 -->
<polyline points=" 1088,2850 1050,2985 1013,2850"
	stroke="#000000" stroke-width="8px" stroke-miterlimit="8"/>
<!-- Line -->
<defs>
<clipPath id="cp6">
	<path clip-rule="evenodd" d="M 288,288 H 6873 V 6012 H 288 z
		M 2288,1200 2250,1335 2213,1200 2243,1357 2257,1357z"/>
</clipPath>
</defs>
<polyline points=" 2250,900 2250,1350" clip-path="url(#cp6)"
	stroke="#000000" stroke-width="8px"/>
<!-- Forward arrow to point 2250,1350 -->
<polyline points=" 2288,1200 2250,1335 2213,1200"
	stroke="#000000" stroke-width="8px" stroke-miterlimit="8"/>
<!-- Line -->
<defs>
<clipPath id="cp7">
	<path clip-rule="evenodd" d="M 288,288 H 6873 V 6012 H 288 z
		M 3488,1200 3450,1335 3413,1200 3443,1357 3457,1357z"/>
</clipPath>
</defs>
<polyline points=" 3450,900 3450,1350" clip-path="url(#cp7)"
	stroke="#000000" stroke-width="8px"/>
<!-- Forward arrow to point 3450,1350 -->
<polyline points=" 3488,1200 3450,1335 3413,1200"
	stroke="#000000" stroke-width="8px" stroke-miterlimit="8"/>
<!-- Line -->
<defs>
<clipPath id="cp8">
	<path clip-rule="evenodd" d="M 288,288 H 6873 V 6012 H 288 z
		M 3788,1200 3750,1335 3713,1200 3743,1357 3757,1357z"/>
</clipPath>
</defs>
<polyline points=" 3750,900 3750,1350" clip-path="url(#cp8)"
	stroke="#000000" stroke-width="8px"/>
<!-- Forward arrow to point 3750,1350 -->
<polyline points=" 3788,1200 3750,1335 3713,1200"
	stroke="#000000" stroke-width="8px" stroke-miterlimit="8"/>
<!-- Line -->
<defs>
<clipPath id="cp9">
	<path clip-rule="evenodd" d="M 288,288 H 6873 V 6012 H 288 z
		M 4088,1200 4050,1335 4013,1200 4043,1357 4057,1357z"/>
</clipPath>
</defs>
<polyline points=" 4050,900 4050,1350" clip-path="url(#cp9)"
	stroke="#000000" stroke-width="8px"/>
<!-- Forward arrow to point 4050,1350 -->
<polyline points=" 4088,1200 4050,1335 4013,1200"
	stroke="#000000" stroke-width="8px" stroke-miterlimit="8"/>
<!-- Line -->
<defs>
<clipPath id="cp10">
	<path clip-rule="evenodd" d="M 288,288 H 6873 V 6012 H 288 z
		M 2588,1200 2550,1335 2513,1200 2543,1357 2557,1357z"/>
</clipPath>
</defs>
<polyline points=" 2550,900 2550,1350" clip-path="url(#cp10)"
	stroke="#000000" stroke-width="8px"/>
<!-- Forward arrow to point 2550,1350 -->
<polyline points=" 2588,1200 2550,1335 2513,1200"
	stroke="#000000" stroke-width="8px" stroke-miterlimit="8"/>
<!-- Line -->
<defs>
<clipPath id="cp11">
	<path clip-rule="evenodd" d="M 288,288 H 6873 V 6012 H 288 z
		M 2888,1200 2850,1335 2813,1200 2843,1357 2857,1357z"/>
</clipPath>
</defs>
<polyline points=" 2850,900 2850,1350" clip-path="url(#cp11)"
	stroke="#000000" stroke-width="8px"/>
<!-- Forward arrow to point 2850,1350 -->
<polyline points=" 2888,1200 2850,1335 2813,1200"
	stroke="#000000" stroke-width="8px" stroke-miterlimit="8"/>
<!-- Line -->
<defs>
<clipPath id="cp12">
	<path clip-rule="evenodd" d="M 288,288 H 6873 V 6012 H 288 z
		M 3188,1200 3150,1335 3113,1200 3143,1357 3157,1357z"/>
</clipPath>
</defs>
<polyline points=" 3150,900 3150,1350" clip-path="url(#cp12)"
	stroke="#000000" stroke-width="8px"/>
<!-- Forward arrow to point 3150,1350 -->
<polyline points=" 3188,1200 3150,1335 3113,1200"
	stroke="#000000" stroke-width="8px" stroke-miterlimit="8"/>
<!-- Line -->
<defs>
<clipPath id="cp13">
	<path clip-rule="evenodd" d="M 288,288 H 6873 V 6012 H 288 z
		M 1088,5475 1050,5610 1013,5475 1043,5632 1057,5632z"/>
</clipPath>
</defs>
<polyline points=" 1050,5025 1050,5625" clip-path="url(#cp13)"
	stroke="#000000" stroke-width="8px"/>
<!-- Forward arrow to point 1050,5625 -->
<polyline points=" 1088,5475 1050,5610 1013,5475"
	stroke="#000000" stroke-width="8px" stroke-miterlimit="8"/>
<!-- Line -->
<defs>
<clipPath id="cp14">
	<path clip-rule="evenodd" d="M 288,288 H 6873 V 6012 H 288 z
		M 2888,5475 2850,5610 2813,5475 2843,5632 2857,5632z"/>
</clipPath>
</defs>
<polyline points=" 2850,5025 2850,5625" clip-path="url(#cp14)"
	stroke="#000000" stroke-width="8px"/>
<!-- Forward arrow to point 2850,5625 -->
<polyline points=" 2888,5475 2850,5610 2813,5475"
	stroke="#000000" stroke-width="8px" stroke-miterlimit="8"/>
<!-- Line -->
<polyline points=" 1800,3075 1875,3075 1875,3675 450,3675 450,3600"
	stroke="#000000" stroke-width="8px"/>
<!-- Line -->
<polyline points=" 1875,3150 1950,3150 1950,3750 525,3750 525,3675"
	stroke="#000000" stroke-width="8px"/>
<!-- Line -->
<defs>
<clipPath id="cp15">
	<path clip-rule="evenodd" d="M 288,288 H 6873 V 6012 H 288 z
		M 1088,4275 1050,4410 1013,4275 1043,4432 1057,4432z"/>
</clipPath>
</defs>
<polyline points=" 1050,3750 1050,4425" clip-path="url(#cp15)"
	stroke="#000000" stroke-width="8px"/>
<!-- Forward arrow to point 1050,4425 -->
<polyline points=" 1088,4275 1050,4410 1013,4275"
	stroke="#000000" stroke-width="8px" stroke-miterlimit="8"/>
<!-- Line -->
<defs>
<clipPath id="cp16">
	<path clip-rule="evenodd" d="M 288,288 H 6873 V 6012 H 288 z
		M 2660,4322 2762,4418 2625,4388 2778,4434 2784,4422z"/>
</clipPath>
</defs>
<polyline points=" 1500,3750 2775,4425" clip-path="url(#cp16)"
	stroke="#000000" stroke-width="8px"/>
<!-- Forward arrow to point 2775,4425 -->
<polyline points=" 2660,4322 2762,4418 2625,4388"
	stroke="#000000" stroke-width="8px" stroke-miterlimit="8"/>
<!-- Line -->
<rect x="2100" y="4425" width="1500" height="600" rx="105"
	stroke="#000000" stroke-width="8px"/>
<!-- Line -->
<defs>
<clipPath id="cp17">
	<path clip-rule="evenodd" d="M 288,288 H 6873 V 6012 H 288 z
		M 3713,1950 3675,2085 3638,1950 3668,2107 3682,2107z"/>
</clipPath>
</defs>
<polyline points=" 3675,1725 3675,2100" clip-path="url(#cp17)"
	stroke="#000000" stroke-width="8px"/>
<!-- Forward arrow to point 3675,2100 -->
<polyline points=" 3713,1950 3675,2085 3638,1950"
	stroke="#000000" stroke-width="8px" stroke-miterlimit="8"/>
<!-- Line -->
<defs>
<clipPath id="cp18">
	<path clip-rule="evenodd" d="M 288,288 H 6873 V 6012 H 288 z
		M 2588,1950 2550,2085 2513,1950 2543,2107 2557,2107z"/>
</clipPath>
</defs>
<polyline points=" 2550,1725 2550,2100" clip-path="url(#cp18)"
	stroke="#000000" stroke-width="8px"/>
<!-- Forward arrow to point 2550,2100 -->
<polyline points=" 2588,1950 2550,2085 2513,1950"
	stroke="#000000" stroke-width="8px" stroke-miterlimit="8"/>
<!-- Line -->
<rect x="1800" y="300" width="2250" height="375"
	stroke="#000000" stroke-width="8px"/>
<!-- Line -->
<polyline points=" 4050,375 4125,375 4125,750 1875,750 1875,675"
	stroke="#000000" stroke-width="8px"/>
<!-- Line -->
<polyline points=" 4125,450 4200,450 4200,825 1950,825 1950,750"
	stroke="#000000" stroke-width="8px"/>
<!-- Line -->
<polyline points=" 4200,525 4275,525 4275,900 2025,900 2025,825"
	stroke="#000000" stroke-width="8px"/>
<!-- Line -->
<polyline points=" 300,1050 6825,1050"
	stroke="#000000" stroke-width="8px" stroke-dasharray="40 40"/>
<!-- Line -->
<polyline points=" 300,5325 6825,5325"
	stroke="#000000" stroke-width="8px" stroke-dasharray="40 40"/>
<!-- Text -->
<text xml:space="preserve" x="2220" y="1620" fill="#000000" font-family="Times" font-style="normal" font-weight="normal" font-size="120" text-anchor="start">System call interface</text>
<!-- Text -->
<text xml:space="preserve" x="375" y="2355" fill="#000000" font-family="Times" font-style="normal" font-weight="normal" font-size="144" text-anchor="start">Virtual filesystem</text>
<!-- Text -->
<text xml:space="preserve" x="375" y="2625" fill="#000000" font-family="Times" font-style="normal" font-weight="normal" font-size="144" text-anchor="start">management</text>
<!-- Text -->
<text xml:space="preserve" x="525" y="4680" fill="#000000" font-family="Times" font-style="normal" font-weight="normal" font-size="144" text-anchor="start">IDE harddisk</text>
<!-- Text -->
<text xml:space="preserve" x="525" y="4885" fill="#000000" font-family="Times" font-style="normal" font-weight="normal" font-size="144" text-anchor="start">driver</text>
<!-- Text -->
<text xml:space="preserve" x="2475" y="5870" fill="#000000" font-family="Times" font-style="normal" font-weight="normal" font-size="144" text-anchor="start">Floppy disk</text>
<!-- Text -->
<text xml:space="preserve" x="525" y="5870" fill="#000000" font-family="Times" font-style="normal" font-weight="normal" font-size="144" text-anchor="start">IDE hard disk</text>
<!-- Text -->
<text xml:space="preserve" x="450" y="3250" fill="#000000" font-family="Times" font-style="normal" font-weight="normal" font-size="144" text-anchor="start">Various filesystem</text>
<!-- Text -->
<text xml:space="preserve" x="450" y="3515" fill="#000000" font-family="Times" font-style="normal" font-weight="normal" font-size="144" text-anchor="start">drivers</text>
<!-- Text -->
<text xml:space="preserve" x="2400" y="4680" fill="#000000" font-family="Times" font-style="normal" font-weight="normal" font-size="144" text-anchor="start">Floppy disk</text>
<!-- Text -->
<text xml:space="preserve" x="2400" y="4950" fill="#000000" font-family="Times" font-style="normal" font-weight="normal" font-size="144" text-anchor="start">driver</text>
<!-- Text -->
<text xml:space="preserve" x="2175" y="2400" fill="#000000" font-family="Times" font-style="normal" font-weight="normal" font-size="144" text-anchor="start">Memory</text>
<!-- Text -->
<text xml:space="preserve" x="2175" y="2620" fill="#000000" font-family="Times" font-style="normal" font-weight="normal" font-size="144" text-anchor="start">manager</text>
<!-- Text -->
<text xml:space="preserve" x="3375" y="2400" fill="#000000" font-family="Times" font-style="normal" font-weight="normal" font-size="144" text-anchor="start">Process</text>
<!-- Text -->
<text xml:space="preserve" x="3375" y="2620" fill="#000000" font-family="Times" font-style="normal" font-weight="normal" font-size="144" text-anchor="start">manager</text>
<!-- Text -->
<text xml:space="preserve" x="4800" y="5775" fill="#000000" font-family="Times" font-style="normal" font-weight="normal" font-size="144" text-anchor="start">Ethernet card</text>
<!-- Text -->
<text xml:space="preserve" x="4575" y="2325" fill="#000000" font-family="Times" font-style="normal" font-weight="normal" font-size="144" text-anchor="start">Abstract network</text>
<!-- Text -->
<text xml:space="preserve" x="4575" y="2595" fill="#000000" font-family="Times" font-style="normal" font-weight="normal" font-size="144" text-anchor="start">services (sockets)</text>
<!-- Text -->
<text xml:space="preserve" x="4650" y="3225" fill="#000000" font-family="Times" font-style="normal" font-weight="normal" font-size="144" text-anchor="start">TCP/IP protocol</text>
<!-- Text -->
<text xml:space="preserve" x="4650" y="3495" fill="#000000" font-family="Times" font-style="normal" font-weight="normal" font-size="144" text-anchor="start">drivers</text>
<!-- Text -->
<text xml:space="preserve" x="4725" y="4695" fill="#000000" font-family="Times" font-style="normal" font-weight="normal" font-size="144" text-anchor="start">Ethernet card</text>
<!-- Text -->
<text xml:space="preserve" x="4725" y="4965" fill="#000000" font-family="Times" font-style="normal" font-weight="normal" font-size="144" text-anchor="start">driver</text>
<!-- Text -->
<text xml:space="preserve" x="6075" y="5550" fill="#000000" font-family="Times" font-style="normal" font-weight="normal" font-size="144" text-anchor="start">Hardware</text>
<!-- Text -->
<text xml:space="preserve" x="6330" y="5175" fill="#000000" font-family="Times" font-style="normal" font-weight="normal" font-size="144" text-anchor="start">Kernel</text>
<!-- Text -->
<text xml:space="preserve" x="5520" y="900" fill="#000000" font-family="Times" font-style="normal" font-weight="normal" font-size="144" text-anchor="start">Normal programs</text>
<!-- Text -->
<text xml:space="preserve" x="6330" y="1425" fill="#000000" font-family="Times" font-style="normal" font-weight="normal" font-size="144" text-anchor="start">Kernel</text>
<!-- Text -->
<text xml:space="preserve" x="2250" y="525" fill="#000000" font-family="Times" font-style="normal" font-weight="normal" font-size="144" text-anchor="start">User level programs</text>
</g>
</svg>
